<?xml version="1.0"?>
<svg width="640" height="480" xmlns="http://www.w3.org/2000/svg" xmlns:svg="http://www.w3.org/2000/svg">
 <!-- Created with SVG-edit - https://github.com/SVG-Edit/svgedit-->
 <g class="layer">
  <title>Layer 1</title>
  <path d="m11.742494,101.222505l0,0c0,-43.630493 35.59337,-79.000003 79.500008,-79.000003l0,0c21.084704,0 41.305851,8.323186 56.214984,23.13856c14.909149,14.81538 23.285024,34.909333 23.285024,55.861443l0,0c0,43.630488 -35.59337,79.000003 -79.500008,79.000003l0,0c-43.906632,0 -79.500008,-35.369516 -79.500008,-79.000003zm39.750004,0l0,0c0,21.815241 17.796696,39.500002 39.750004,39.500002c21.953324,0 39.750004,-17.68476 39.750004,-39.500002c0,-21.815241 -17.79669,-39.500002 -39.750004,-39.500002l0,0c-21.953308,0 -39.750004,17.684766 -39.750004,39.500002z" fill="#d4ffaa" id="svg_7" stroke="#000000" stroke-dasharray="null" stroke-linecap="null" stroke-linejoin="null" stroke-width="0"/>
  <polygon fill="#00ff00" id="svg_14" points="504.5,240.5 504.5,240.5 504.5,240.5 504.5,240.5 504.5,240.5 504.5,240.5 504.5,240.5 504.5,240.5 504.5,240.5 504.5,240.5 504.5,240.5 504.5,240.5 " stroke="#000000" stroke-width="0"/>
  <polygon fill="#00ff00" id="svg_15"/>
  <text fill="#0000ff" font-family="serif" font-size="24" id="svg_3" stroke="#000000" stroke-dasharray="null" stroke-linecap="null" stroke-linejoin="null" stroke-width="0" text-anchor="middle" transform="matrix(1.46307 0 0 1.11592 -267.952 -40.7103)" x="262.410843" xml:space="preserve" y="130.017799">T.</text>
  <text fill="#ff0000" font-family="serif" font-size="24" id="svg_1" stroke="#000000" stroke-width="0" text-anchor="middle" transform="matrix(1.53313 0 0 0.869065 -22.9815 38.4752)" x="59.467594" xml:space="preserve" y="72.503572">E.</text>
  <text fill="#00ff00" font-family="serif" font-size="24" id="svg_2" stroke="#000000" stroke-dasharray="null" stroke-linecap="null" stroke-linejoin="null" stroke-width="0" text-anchor="middle" transform="matrix(1.19803 0 0 0.953613 -78.4662 -20.8049)" x="143.392268" xml:space="preserve" y="149.445075">L.</text>
 </g>
</svg>